<svg xmlns="http://www.w3.org/2000/svg" xmlns:xlink="http://www.w3.org/1999/xlink" width="2000" zoomAndPan="magnify" viewBox="0 0 1500 1499.999933" height="2000" preserveAspectRatio="xMidYMid meet" version="1.0"><path fill="#231f20" d="M 1227.453125 750.109375 C 1227.453125 757.921875 1227.261719 765.730469 1226.878906 773.53125 C 1226.496094 781.335938 1225.921875 789.125 1225.15625 796.898438 C 1224.390625 804.671875 1223.433594 812.421875 1222.285156 820.152344 C 1221.140625 827.878906 1219.804688 835.574219 1218.28125 843.234375 C 1216.757812 850.898438 1215.046875 858.515625 1213.148438 866.09375 C 1211.25 873.671875 1209.167969 881.199219 1206.898438 888.675781 C 1204.632812 896.152344 1202.179688 903.566406 1199.550781 910.921875 C 1196.917969 918.277344 1194.105469 925.5625 1191.117188 932.78125 C 1188.128906 940 1184.964844 947.136719 1181.625 954.199219 C 1178.28125 961.261719 1174.773438 968.238281 1171.089844 975.128906 C 1167.40625 982.019531 1163.558594 988.8125 1159.539062 995.511719 C 1155.523438 1002.214844 1151.347656 1008.8125 1147.007812 1015.308594 C 1142.667969 1021.804688 1138.167969 1028.1875 1133.515625 1034.464844 C 1128.863281 1040.738281 1124.058594 1046.894531 1119.101562 1052.933594 C 1114.144531 1058.972656 1109.042969 1064.886719 1103.796875 1070.675781 C 1098.550781 1076.460938 1093.167969 1082.117188 1087.644531 1087.644531 C 1082.117188 1093.167969 1076.460938 1098.550781 1070.675781 1103.796875 C 1064.886719 1109.042969 1058.972656 1114.144531 1052.933594 1119.101562 C 1046.894531 1124.058594 1040.738281 1128.863281 1034.464844 1133.515625 C 1028.1875 1138.167969 1021.804688 1142.667969 1015.308594 1147.007812 C 1008.8125 1151.347656 1002.214844 1155.523438 995.511719 1159.539062 C 988.8125 1163.558594 982.019531 1167.40625 975.128906 1171.089844 C 968.238281 1174.773438 961.261719 1178.28125 954.199219 1181.621094 C 947.136719 1184.964844 940 1188.128906 932.78125 1191.117188 C 925.5625 1194.105469 918.277344 1196.917969 910.921875 1199.550781 C 903.566406 1202.179688 896.152344 1204.632812 888.675781 1206.898438 C 881.199219 1209.167969 873.671875 1211.25 866.09375 1213.148438 C 858.515625 1215.046875 850.898438 1216.757812 843.234375 1218.28125 C 835.574219 1219.804688 827.878906 1221.140625 820.152344 1222.285156 C 812.421875 1223.433594 804.671875 1224.390625 796.898438 1225.15625 C 789.125 1225.921875 781.335938 1226.496094 773.53125 1226.878906 C 765.730469 1227.261719 757.921875 1227.453125 750.109375 1227.453125 C 742.296875 1227.453125 734.492188 1227.261719 726.6875 1226.878906 C 718.886719 1226.496094 711.097656 1225.921875 703.324219 1225.15625 C 695.546875 1224.390625 687.796875 1223.433594 680.070312 1222.285156 C 672.34375 1221.140625 664.648438 1219.804688 656.984375 1218.28125 C 649.324219 1216.757812 641.703125 1215.046875 634.125 1213.148438 C 626.546875 1211.25 619.019531 1209.167969 611.542969 1206.898438 C 604.070312 1204.632812 596.652344 1202.179688 589.296875 1199.550781 C 581.941406 1196.917969 574.65625 1194.105469 567.4375 1191.117188 C 560.222656 1188.128906 553.082031 1184.964844 546.019531 1181.625 C 538.957031 1178.28125 531.980469 1174.773438 525.09375 1171.089844 C 518.203125 1167.40625 511.40625 1163.558594 504.707031 1159.539062 C 498.007812 1155.523438 491.410156 1151.347656 484.914062 1147.007812 C 478.417969 1142.667969 472.03125 1138.167969 465.757812 1133.515625 C 459.484375 1128.863281 453.324219 1124.058594 447.289062 1119.101562 C 441.25 1114.144531 435.335938 1109.042969 429.546875 1103.796875 C 423.757812 1098.550781 418.101562 1093.167969 412.578125 1087.644531 C 407.054688 1082.117188 401.667969 1076.460938 396.421875 1070.675781 C 391.175781 1064.886719 386.074219 1058.972656 381.121094 1052.933594 C 376.164062 1046.894531 371.359375 1040.738281 366.703125 1034.464844 C 362.050781 1028.1875 357.554688 1021.804688 353.214844 1015.308594 C 348.875 1008.8125 344.695312 1002.214844 340.679688 995.511719 C 336.664062 988.8125 332.8125 982.019531 329.132812 975.128906 C 325.449219 968.238281 321.9375 961.261719 318.597656 954.199219 C 315.257812 947.136719 312.09375 940 309.101562 932.78125 C 306.113281 925.5625 303.300781 918.277344 300.671875 910.921875 C 298.039062 903.566406 295.589844 896.152344 293.320312 888.675781 C 291.054688 881.199219 288.972656 873.671875 287.074219 866.09375 C 285.175781 858.515625 283.464844 850.898438 281.9375 843.234375 C 280.414062 835.574219 279.082031 827.878906 277.933594 820.152344 C 276.789062 812.421875 275.832031 804.671875 275.066406 796.898438 C 274.300781 789.125 273.726562 781.335938 273.34375 773.53125 C 272.960938 765.730469 272.765625 757.921875 272.765625 750.109375 C 272.765625 742.296875 272.960938 734.492188 273.34375 726.6875 C 273.726562 718.886719 274.300781 711.097656 275.066406 703.324219 C 275.832031 695.546875 276.789062 687.796875 277.933594 680.070312 C 279.082031 672.34375 280.414062 664.648438 281.9375 656.984375 C 283.464844 649.324219 285.175781 641.703125 287.074219 634.125 C 288.972656 626.546875 291.054688 619.019531 293.320312 611.542969 C 295.589844 604.070312 298.039062 596.652344 300.671875 589.296875 C 303.300781 581.941406 306.113281 574.65625 309.101562 567.4375 C 312.09375 560.222656 315.257812 553.082031 318.597656 546.019531 C 321.9375 538.957031 325.449219 531.980469 329.132812 525.09375 C 332.8125 518.203125 336.664062 511.40625 340.679688 504.707031 C 344.695312 498.007812 348.875 491.40625 353.214844 484.914062 C 357.554688 478.417969 362.050781 472.03125 366.703125 465.757812 C 371.359375 459.484375 376.164062 453.324219 381.121094 447.285156 C 386.074219 441.25 391.175781 435.335938 396.421875 429.546875 C 401.667969 423.757812 407.054688 418.101562 412.578125 412.578125 C 418.101562 407.054688 423.757812 401.667969 429.546875 396.421875 C 435.335938 391.175781 441.25 386.074219 447.289062 381.121094 C 453.324219 376.164062 459.484375 371.359375 465.757812 366.703125 C 472.03125 362.050781 478.417969 357.554688 484.914062 353.214844 C 491.410156 348.875 498.007812 344.695312 504.707031 340.679688 C 511.40625 336.664062 518.203125 332.8125 525.09375 329.132812 C 531.980469 325.449219 538.957031 321.9375 546.019531 318.597656 C 553.082031 315.257812 560.222656 312.09375 567.4375 309.101562 C 574.65625 306.113281 581.941406 303.300781 589.296875 300.671875 C 596.652344 298.039062 604.070312 295.589844 611.542969 293.320312 C 619.019531 291.054688 626.546875 288.972656 634.125 287.074219 C 641.703125 285.175781 649.324219 283.464844 656.984375 281.9375 C 664.648438 280.414062 672.34375 279.082031 680.070312 277.933594 C 687.796875 276.789062 695.546875 275.832031 703.324219 275.066406 C 711.097656 274.300781 718.886719 273.726562 726.6875 273.34375 C 734.492188 272.960938 742.296875 272.765625 750.109375 272.765625 C 757.921875 272.765625 765.730469 272.960938 773.53125 273.34375 C 781.335938 273.726562 789.125 274.300781 796.898438 275.066406 C 804.671875 275.832031 812.421875 276.789062 820.152344 277.933594 C 827.878906 279.082031 835.574219 280.414062 843.234375 281.9375 C 850.898438 283.464844 858.515625 285.175781 866.09375 287.074219 C 873.671875 288.972656 881.199219 291.054688 888.675781 293.320312 C 896.152344 295.589844 903.566406 298.039062 910.921875 300.671875 C 918.277344 303.300781 925.5625 306.113281 932.78125 309.101562 C 940 312.09375 947.136719 315.257812 954.199219 318.597656 C 961.261719 321.9375 968.238281 325.449219 975.128906 329.132812 C 982.019531 332.8125 988.8125 336.664062 995.511719 340.679688 C 1002.214844 344.695312 1008.8125 348.875 1015.308594 353.214844 C 1021.804688 357.554688 1028.1875 362.050781 1034.464844 366.703125 C 1040.738281 371.359375 1046.894531 376.164062 1052.933594 381.121094 C 1058.972656 386.074219 1064.886719 391.175781 1070.675781 396.421875 C 1076.460938 401.667969 1082.117188 407.054688 1087.644531 412.578125 C 1093.167969 418.101562 1098.550781 423.757812 1103.796875 429.546875 C 1109.042969 435.335938 1114.144531 441.25 1119.101562 447.285156 C 1124.058594 453.324219 1128.863281 459.484375 1133.515625 465.757812 C 1138.167969 472.03125 1142.667969 478.417969 1147.007812 484.914062 C 1151.347656 491.40625 1155.523438 498.007812 1159.539062 504.707031 C 1163.558594 511.40625 1167.40625 518.203125 1171.089844 525.09375 C 1174.773438 531.980469 1178.28125 538.957031 1181.621094 546.019531 C 1184.964844 553.082031 1188.128906 560.222656 1191.117188 567.4375 C 1194.105469 574.65625 1196.917969 581.941406 1199.550781 589.296875 C 1202.179688 596.652344 1204.632812 604.070312 1206.898438 611.542969 C 1209.167969 619.019531 1211.25 626.546875 1213.148438 634.125 C 1215.046875 641.703125 1216.757812 649.324219 1218.28125 656.984375 C 1219.804688 664.648438 1221.140625 672.34375 1222.285156 680.070312 C 1223.433594 687.796875 1224.390625 695.546875 1225.15625 703.324219 C 1225.921875 711.097656 1226.496094 718.886719 1226.878906 726.6875 C 1227.261719 734.492188 1227.453125 742.296875 1227.453125 750.109375 Z M 1227.453125 750.109375 " fill-opacity="1" fill-rule="nonzero"/><path fill="#39b54a" d="M 870.824219 627.410156 L 645.503906 627.410156 C 625.863281 627.410156 609.976562 611.519531 609.976562 591.878906 C 609.976562 572.238281 625.863281 556.347656 645.503906 556.347656 L 870.824219 556.347656 C 890.464844 556.347656 906.355469 572.238281 906.355469 591.878906 C 906.355469 611.519531 890.464844 627.410156 870.824219 627.410156 Z M 870.824219 627.410156 " fill-opacity="1" fill-rule="nonzero"/><path fill="#231f20" d="M 750.109375 1500 C 648.816406 1500 550.609375 1480.136719 458.144531 1441.078125 C 413.785156 1422.320312 370.75 1398.925781 330.808594 1372.003906 C 291.085938 1345.078125 253.789062 1314.402344 219.804688 1280.417969 C 185.816406 1246.433594 155.140625 1209.136719 128.21875 1169.414062 C 101.074219 1129.25 77.902344 1086.433594 59.144531 1042.078125 C 19.863281 949.609375 0 851.183594 0 750.109375 C 0 649.035156 19.863281 550.609375 58.921875 458.144531 C 77.679688 413.785156 101.074219 370.75 127.996094 330.808594 C 154.921875 291.085938 185.597656 253.789062 219.582031 219.804688 C 253.566406 185.816406 290.863281 155.140625 330.585938 128.21875 C 370.75 101.074219 413.566406 77.902344 457.921875 59.144531 C 550.609375 19.863281 648.816406 0 750.109375 0 C 851.40625 0 949.609375 19.863281 1042.078125 58.921875 C 1086.433594 77.679688 1129.46875 101.074219 1169.414062 127.996094 C 1209.136719 154.921875 1246.433594 185.597656 1280.417969 219.582031 C 1314.402344 253.566406 1345.078125 290.863281 1372.003906 330.585938 C 1399.148438 370.75 1422.320312 413.566406 1441.078125 457.921875 C 1480.136719 550.390625 1500 648.59375 1500 749.890625 C 1500 851.183594 1480.136719 949.390625 1441.078125 1041.855469 C 1422.320312 1086.214844 1398.925781 1129.25 1372.003906 1169.191406 C 1345.078125 1208.914062 1314.402344 1246.210938 1280.417969 1280.195312 C 1246.433594 1314.183594 1209.136719 1344.859375 1169.414062 1371.78125 C 1129.25 1398.925781 1086.433594 1422.097656 1042.078125 1440.855469 C 949.609375 1480.359375 851.183594 1500 750.109375 1500 Z M 750.109375 89.597656 C 385.980469 89.597656 89.597656 385.980469 89.597656 750.109375 C 89.597656 1114.242188 385.980469 1410.621094 750.109375 1410.621094 C 1114.242188 1410.621094 1410.621094 1114.242188 1410.621094 750.109375 C 1410.621094 385.980469 1114.242188 89.597656 750.109375 89.597656 Z M 750.109375 89.597656 " fill-opacity="1" fill-rule="nonzero"/><path fill="#ffffff" d="M 506.03125 878.328125 L 487.714844 932.617188 L 437.839844 932.617188 L 517.507812 697.808594 L 581.285156 697.808594 L 664.484375 932.617188 L 611.078125 932.617188 L 591.878906 878.328125 Z M 580.84375 836.839844 C 564.074219 787.40625 553.480469 755.628906 547.960938 734.664062 L 547.519531 734.664062 C 541.78125 757.835938 530.085938 794.6875 516.625 836.839844 Z M 580.84375 836.839844 " fill-opacity="1" fill-rule="nonzero"/><path fill="#ffffff" d="M 680.152344 949.832031 L 774.386719 694.277344 L 814.769531 694.277344 L 720.757812 949.832031 Z M 680.152344 949.832031 " fill-opacity="1" fill-rule="nonzero"/><path fill="#ffffff" d="M 1054.214844 860.230469 C 1044.726562 903.929688 1011.84375 935.925781 952.921875 935.925781 C 878.550781 935.925781 843.238281 883.183594 843.238281 816.535156 C 843.238281 752.097656 879.652344 694.496094 955.347656 694.496094 C 1017.800781 694.496094 1048.257812 731.132812 1053.773438 770.414062 L 1003.015625 770.414062 C 998.160156 752.316406 985.582031 734.222656 953.582031 734.222656 C 911.652344 734.222656 895.542969 771.957031 895.542969 814.550781 C 895.542969 854.273438 909.667969 895.984375 954.90625 895.984375 C 988.007812 895.984375 998.382812 873.695312 1002.796875 860.011719 L 1054.214844 860.011719 Z M 1054.214844 860.230469 " fill-opacity="1" fill-rule="nonzero"/><path fill="#b91b02" d="M 598.71875 234.808594 C 624.097656 229.511719 649.699219 225.097656 675.519531 222.007812 C 701.339844 218.921875 727.378906 216.933594 753.421875 216.273438 C 779.460938 215.609375 805.722656 216.273438 831.765625 218.480469 C 857.804688 220.6875 884.066406 224.4375 909.664062 229.953125 C 961.304688 240.769531 1011.84375 258.644531 1059.070312 283.800781 C 1106.296875 308.960938 1149.773438 341.402344 1187.730469 379.800781 C 1225.6875 418.199219 1257.90625 462.335938 1283.726562 510.226562 C 1309.546875 558.113281 1328.746094 609.535156 1341.328125 662.5 C 1342.871094 669.117188 1344.417969 675.738281 1345.742188 682.582031 C 1347.066406 689.199219 1348.390625 696.042969 1349.492188 702.664062 C 1351.917969 716.125 1353.683594 729.585938 1355.230469 743.269531 C 1356.773438 756.953125 1357.65625 770.632812 1358.320312 784.316406 C 1358.539062 787.847656 1358.539062 791.15625 1358.761719 794.6875 L 1358.980469 805.0625 C 1358.980469 811.902344 1359.203125 818.742188 1358.980469 825.804688 C 1358.761719 839.488281 1358.320312 853.390625 1356.996094 867.292969 C 1355.890625 880.976562 1354.347656 894.878906 1352.359375 908.5625 C 1350.375 922.246094 1347.949219 935.925781 1344.859375 949.609375 C 1341.988281 963.292969 1338.457031 976.753906 1334.707031 990.214844 L 1334.707031 990.4375 C 1327.863281 1014.269531 1303.148438 1027.953125 1279.3125 1021.332031 C 1255.480469 1014.492188 1241.796875 989.773438 1248.417969 965.941406 C 1248.640625 964.835938 1249.082031 963.511719 1249.523438 962.410156 C 1253.714844 951.15625 1257.464844 939.898438 1260.996094 928.425781 C 1264.527344 916.949219 1267.617188 905.253906 1270.265625 893.554688 C 1272.914062 881.859375 1275.34375 869.941406 1277.328125 858.027344 C 1279.3125 846.109375 1280.859375 834.191406 1281.960938 822.054688 C 1283.066406 809.917969 1283.949219 798 1284.167969 785.640625 C 1284.390625 773.503906 1284.390625 761.144531 1283.949219 749.007812 C 1283.507812 736.871094 1282.625 724.511719 1281.519531 712.375 C 1280.859375 706.195312 1280.195312 700.234375 1279.535156 694.054688 C 1278.652344 687.878906 1277.769531 681.917969 1276.886719 675.960938 C 1268.941406 627.628906 1255.039062 579.960938 1234.734375 534.941406 C 1214.433594 489.921875 1187.949219 447.550781 1155.730469 410.035156 C 1123.511719 372.296875 1085.332031 339.414062 1042.738281 312.710938 C 1000.148438 286.007812 953.582031 265.707031 904.589844 251.582031 C 855.597656 237.457031 804.621094 229.953125 753.421875 227.527344 C 727.820312 226.421875 702 226.421875 676.179688 227.746094 C 650.140625 228.851562 624.320312 231.277344 598.71875 234.808594 Z M 598.71875 234.808594 " fill-opacity="1" fill-rule="nonzero"/><path fill="#007cd4" d="M 957.113281 169.046875 C 929.75 165.957031 902.164062 163.75 874.578125 163.085938 C 846.992188 162.425781 819.40625 162.867188 792.039062 164.851562 C 737.3125 168.824219 683.023438 178.535156 631.382812 195.085938 C 618.359375 199.277344 605.5625 203.691406 592.980469 208.769531 C 580.402344 213.84375 568.042969 219.140625 555.6875 224.878906 C 543.546875 230.617188 531.410156 236.796875 519.714844 243.417969 C 508.019531 250.035156 496.542969 257.097656 485.289062 264.601562 C 440.488281 294.394531 400.324219 330.367188 365.898438 371.191406 C 331.46875 412.019531 303 457.261719 280.710938 505.371094 C 258.421875 553.480469 242.3125 604.238281 232.601562 655.878906 C 230.175781 668.898438 228.1875 681.699219 226.421875 694.9375 C 225.539062 701.339844 224.878906 707.960938 224.214844 714.578125 C 223.554688 721.199219 223.113281 727.601562 222.671875 734.222656 C 221.789062 747.242188 221.347656 760.261719 221.347656 773.28125 C 221.347656 779.902344 221.570312 786.304688 221.570312 792.921875 C 221.789062 799.324219 222.230469 805.945312 222.671875 812.34375 C 224.65625 838.164062 228.410156 863.761719 233.925781 888.699219 C 239.445312 913.859375 246.726562 938.355469 255.773438 962.1875 C 264.382812 985.359375 252.683594 1011.179688 229.511719 1019.789062 C 206.339844 1028.394531 180.519531 1016.699219 171.914062 993.527344 C 171.472656 992.421875 171.03125 991.320312 170.8125 990.214844 L 170.8125 989.996094 C 162.644531 961.304688 156.464844 932.175781 152.492188 902.824219 C 148.523438 873.472656 146.535156 843.902344 146.757812 814.550781 L 146.757812 803.738281 L 146.976562 792.703125 C 147.199219 785.421875 147.640625 778.136719 148.082031 770.855469 C 148.964844 756.289062 150.507812 741.722656 152.273438 727.378906 C 153.15625 720.097656 154.257812 713.035156 155.363281 705.753906 C 156.464844 698.691406 157.789062 691.40625 159.113281 684.347656 C 161.761719 670 165.074219 655.878906 168.605469 641.972656 C 182.949219 585.921875 204.355469 531.851562 231.941406 481.09375 C 259.527344 430.558594 293.511719 383.550781 333.234375 342.285156 C 353.097656 321.539062 374.28125 302.339844 396.792969 284.90625 C 408.046875 276.078125 419.523438 267.691406 431.441406 259.746094 C 443.359375 251.800781 455.273438 244.300781 467.632812 237.238281 C 479.992188 230.175781 492.570312 223.554688 505.371094 217.375 C 518.167969 211.195312 531.191406 205.457031 544.210938 200.382812 C 557.453125 195.085938 570.691406 190.453125 584.15625 186.039062 C 597.617188 181.84375 611.078125 177.871094 624.761719 174.5625 C 679.269531 161.101562 735.324219 154.699219 790.9375 154.480469 C 818.742188 154.257812 846.550781 155.582031 874.136719 158.230469 C 902.382812 160.21875 929.96875 163.96875 957.113281 169.046875 Z M 957.113281 169.046875 " fill-opacity="1" fill-rule="nonzero"/></svg>